<?xml version="1.0" standalone="no"?>
<!DOCTYPE svg PUBLIC "-//W3C//DTD SVG 20010904//EN"
 "http://www.w3.org/TR/2001/REC-SVG-20010904/DTD/svg10.dtd">
<svg version="1.0" xmlns="http://www.w3.org/2000/svg"
 width="250.000000pt" height="250.000000pt" viewBox="0 0 250.000000 250.000000"
 preserveAspectRatio="xMidYMid meet">
<metadata>
Created by potrace 1.11, written by Peter Selinger 2001-2013
</metadata>
<g transform="translate(0.000000,250.000000) scale(0.100000,-0.100000)"
fill="#000000" stroke="none">
<path d="M1011 1908 c-128 -222 -242 -415 -252 -430 -11 -15 -19 -30 -19 -32
0 -3 -22 -43 -49 -88 -87 -148 -224 -382 -246 -423 -12 -22 -117 -202 -233
-400 l-210 -360 624 -3 c343 -1 905 -1 1248 0 l624 3 -95 160 c-52 88 -98 169
-104 180 -5 11 -21 38 -34 60 -14 22 -28 47 -32 55 -4 7 -45 79 -93 160 -47
80 -89 152 -93 160 -4 8 -17 31 -29 50 -11 19 -26 44 -32 55 -6 11 -18 31 -27
45 -9 14 -59 99 -111 190 -93 160 -109 188 -170 295 -16 28 -33 57 -38 65 -10
15 -153 262 -196 337 -13 23 -54 93 -91 155 -36 62 -73 125 -80 141 -8 15 -18
27 -22 27 -4 0 -112 -181 -240 -402z"/>
</g>
</svg>
